<svg width="44" height="59" viewBox="0 0 44 59" fill="none" xmlns="http://www.w3.org/2000/svg">
<path fill-rule="evenodd" clip-rule="evenodd" d="M43.6292 12.0287C43.6292 8.7563 41.277 6.03325 38.1711 5.45805C37.5959 2.35218 34.8729 0 31.6005 0H7.54298C3.85227 0 0.860352 2.99192 0.860352 6.68263V46.7784C0.860352 50.0508 3.21253 52.7739 6.31841 53.3491C6.8936 56.455 9.61665 58.8071 12.8891 58.8071H36.9466C40.6373 58.8071 43.6292 55.8152 43.6292 52.1245V12.0287ZM35.6094 29.4037H31.5999V28.4211C31.5999 26.0737 30.3683 23.8985 28.3554 22.6908L25.7626 21.1351C26.9045 19.7495 27.5903 17.9741 27.5903 16.0385C27.5903 11.6096 24 8.01931 19.5711 8.01931C15.1423 8.01931 11.552 11.6096 11.552 16.0385C11.552 17.9741 12.2378 19.7495 13.3796 21.1351L10.7868 22.6908C8.774 23.8985 7.5424 26.0737 7.5424 28.4211V29.4037H3.53282V6.68278C3.53282 4.46835 5.32797 2.6732 7.5424 2.6732H31.5999C33.8143 2.6732 35.6094 4.46835 35.6094 6.68278V29.4037ZM28.9278 28.4214V29.404H10.2164V28.4214C10.2164 27.013 10.9554 25.7078 12.1631 24.9832L15.5273 22.9646C16.7148 23.6596 18.0969 24.0579 19.5721 24.0579C21.0473 24.0579 22.4294 23.6596 23.6169 22.9646L26.9811 24.9832C28.1888 25.7078 28.9278 27.013 28.9278 28.4214ZM3.53282 32.0769V46.7786C3.53282 48.9931 5.32797 50.7882 7.5424 50.7882H31.5999C33.8143 50.7882 35.6094 48.9931 35.6094 46.7786V32.0769H3.53282ZM9.10695 53.4616C9.65738 55.0189 11.1426 56.1346 12.8884 56.1346H36.9458C39.1603 56.1346 40.9554 54.3395 40.9554 52.125V12.0292C40.9554 10.2835 39.8397 8.79825 38.2824 8.24782V46.7789C38.2824 50.4696 35.2905 53.4616 31.5997 53.4616H9.10695ZM24.9178 16.0384C24.9178 18.991 22.5243 21.3845 19.5717 21.3845C16.6191 21.3845 14.2256 18.991 14.2256 16.0384C14.2256 13.0858 16.6191 10.6923 19.5717 10.6923C22.5243 10.6923 24.9178 13.0858 24.9178 16.0384ZM10.2157 40.0961C9.47759 40.0961 8.8792 39.4977 8.8792 38.7595C8.8792 38.0214 9.47759 37.423 10.2157 37.423H28.9271C29.6652 37.423 30.2636 38.0214 30.2636 38.7595C30.2636 39.4977 29.6652 40.0961 28.9271 40.0961H10.2157ZM8.8792 44.1054C8.8792 44.8436 9.47759 45.442 10.2157 45.442H23.581C24.3191 45.442 24.9175 44.8436 24.9175 44.1054C24.9175 43.3673 24.3191 42.7689 23.581 42.7689H10.2157C9.47759 42.7689 8.8792 43.3673 8.8792 44.1054Z" fill="#1739E5"/>
</svg>
