<svg width="66" height="59" viewBox="0 0 66 59" fill="none" xmlns="http://www.w3.org/2000/svg">
<path fill-rule="evenodd" clip-rule="evenodd" d="M27.0155 7.35089C27.0155 8.16285 26.3573 8.82107 25.5453 8.82107C24.7334 8.82107 24.0751 8.16285 24.0751 7.35089C24.0751 3.29111 27.3663 0 31.426 0H31.4989C35.5589 0 38.8503 3.29131 38.8503 7.35135C38.8503 8.16331 38.192 8.82153 37.3801 8.82153C36.5681 8.82153 35.9099 8.16331 35.9099 7.35135C35.9099 4.91522 33.935 2.94036 31.4989 2.94036H31.426C28.9902 2.94036 27.0155 4.91502 27.0155 7.35089ZM0.552612 27.9336C0.552612 31.5787 3.20573 34.6041 6.68622 35.1841C7.51252 41.8429 10.3645 46.6246 15.2544 49.398V57.3371C15.2544 58.1491 15.9126 58.8073 16.7246 58.8073H25.5456C26.3576 58.8073 27.0158 58.1491 27.0158 57.3371V52.9266H41.7176V57.3371C41.7176 58.1491 42.3758 58.8073 43.1878 58.8073H52.0089C52.8208 58.8073 53.479 58.1491 53.479 57.3371V46.2997C56.7743 43.7009 58.7214 41.0151 59.2271 38.2248H63.7703C64.5822 38.2248 65.2405 37.5666 65.2405 36.7546V24.9932C65.2405 24.1812 64.5822 23.523 63.7703 23.523H58.8783C58.232 22.0519 57.412 20.7129 56.4194 19.5097V7.35106C56.4194 6.5391 55.7612 5.88088 54.9492 5.88088C50.4367 5.88088 46.5405 8.80353 45.1756 12.9397C42.0389 12.1523 38.4365 11.7616 34.3667 11.7616C17.0513 11.7616 6.43333 20.533 6.43333 30.8739C6.43333 31.2883 6.43964 31.6969 6.45226 32.0998C4.72934 31.4997 3.49297 29.861 3.49297 27.9336V24.9932C3.49297 24.1812 2.83475 23.523 2.02279 23.523C1.21083 23.523 0.552612 24.1812 0.552612 24.9932V27.9336ZM45.8082 16.1672C46.6616 16.4293 47.5497 15.8765 47.6914 14.9951C48.1808 11.9494 50.524 9.57052 53.4785 8.96908V20.0519C53.4785 20.4106 53.6097 20.7569 53.8472 21.0256C54.9858 22.3136 55.8734 23.8053 56.5125 25.5096C56.7277 26.0834 57.2762 26.4636 57.8891 26.4636H62.2996V35.2846H57.8891C57.0771 35.2846 56.4189 35.9429 56.4189 36.7548C56.4189 39.1507 54.7128 41.7099 51.1263 44.3998C50.7561 44.6774 50.5382 45.1131 50.5382 45.5759V55.8671H44.6575V51.4566C44.6575 50.6447 43.9993 49.9864 43.1873 49.9864H25.5452C24.7332 49.9864 24.075 50.6447 24.075 51.4566V55.8671H18.1943V48.5163C18.1943 47.9594 17.8796 47.4503 17.3816 47.2013C12.0508 44.5359 9.3732 39.1807 9.3732 30.8741C9.3732 22.2945 18.5639 14.7022 34.3662 14.7022C38.8239 14.7022 42.6387 15.1937 45.8082 16.1672ZM44.658 26.4634C44.658 28.0873 45.9744 29.4037 47.5983 29.4037C49.2222 29.4037 50.5387 28.0873 50.5387 26.4634C50.5387 24.8395 49.2222 23.523 47.5983 23.523C45.9744 23.523 44.658 24.8395 44.658 26.4634Z" fill="#1739E5"/>
</svg>
