<svg width="74" height="60" viewBox="0 0 74 60" fill="none" xmlns="http://www.w3.org/2000/svg">
<path fill-rule="evenodd" clip-rule="evenodd" d="M13.0162 44.6861C13.2546 44.6861 13.4825 44.6407 13.6916 44.558H64.3203C69.3951 44.558 73.5089 40.4441 73.5089 35.3694V9.64125C73.5089 4.56652 69.3951 0.452637 64.3203 0.452637H9.18862C4.11388 0.452637 0 4.56652 0 9.64125V35.3694C0 40.4441 4.11388 44.558 9.18862 44.558H12.3407C12.5498 44.6407 12.7777 44.6861 13.0162 44.6861ZM14.7021 5.96552V4.1278H58.8075V5.96552C58.8075 11.0403 62.9213 15.1541 67.9961 15.1541H69.8338V29.8559H67.9961C62.9213 29.8559 58.8075 33.9698 58.8075 39.0445V40.8823H14.8542V39.0445C14.8542 33.9698 10.7403 29.8559 5.66558 29.8559H3.67577V15.1541H5.51349C10.5882 15.1541 14.7021 11.0403 14.7021 5.96552ZM9.18894 4.1278H11.0267V5.96552C11.0267 9.01036 8.55833 11.4787 5.51349 11.4787H3.67577V9.64097C3.67577 6.59613 6.1441 4.1278 9.18894 4.1278ZM11.1788 40.8826V39.0449C11.1788 36 8.71042 33.5317 5.66558 33.5317H3.67577V35.3694C3.67577 38.4143 6.1441 40.8826 9.18894 40.8826H11.1788ZM62.4831 40.8826H64.3208C67.3656 40.8826 69.834 38.4143 69.834 35.3694V33.5317H67.9962C64.9514 33.5317 62.4831 36 62.4831 39.0449V40.8826ZM62.4831 5.96552V4.1278H64.3208C67.3656 4.1278 69.834 6.59613 69.834 9.64097V11.4787H67.9962C64.9514 11.4787 62.4831 9.01036 62.4831 5.96552ZM36.7546 37.207C28.6351 37.207 22.0528 30.6248 22.0528 22.5052C22.0528 14.3856 28.6351 7.80341 36.7546 7.80341C44.8742 7.80341 51.4564 14.3856 51.4564 22.5052C51.4564 30.6248 44.8742 37.207 36.7546 37.207ZM47.7811 22.5054C47.7811 28.595 42.8445 33.5317 36.7548 33.5317C30.6651 33.5317 25.7284 28.595 25.7284 22.5054C25.7284 16.4157 30.6651 11.479 36.7548 11.479C42.8445 11.479 47.7811 16.4157 47.7811 22.5054ZM1.83788 51.9089C0.822934 51.9089 0.000157324 51.0861 0.000157324 50.0711C0.000157324 49.0562 0.822934 48.2334 1.83788 48.2334H71.6714C72.6863 48.2334 73.5091 49.0562 73.5091 50.0711C73.5091 51.0861 72.6863 51.9089 71.6714 51.9089H1.83788ZM0.000157324 57.4221C0.000157324 58.437 0.822934 59.2598 1.83788 59.2598H71.6714C72.6863 59.2598 73.5091 58.437 73.5091 57.4221C73.5091 56.4072 72.6863 55.5844 71.6714 55.5844H1.83788C0.822934 55.5844 0.000157324 56.4072 0.000157324 57.4221Z" fill="#1739E5"/>
</svg>
