<svg width="60" height="60" viewBox="0 0 60 60" fill="none" xmlns="http://www.w3.org/2000/svg">
<path d="M14.0061 6.33335H16.9465C17.7585 6.33335 18.4167 6.99157 18.4167 7.80353V10.7439C18.4167 11.5558 17.7585 12.2141 16.9465 12.2141H14.0061C13.1942 12.2141 12.536 11.5558 12.536 10.7439V7.80353C12.536 6.99157 13.1942 6.33335 14.0061 6.33335Z" fill="#1739E5"/>
<path d="M25.7676 6.33335H22.8272C22.0153 6.33335 21.357 6.99157 21.357 7.80353V10.7439C21.357 11.5558 22.0153 12.2141 22.8272 12.2141H25.7676C26.5795 12.2141 27.2378 11.5558 27.2378 10.7439V7.80353C27.2378 6.99157 26.5795 6.33335 25.7676 6.33335Z" fill="#1739E5"/>
<path d="M31.6483 6.33335H34.5886C35.4006 6.33335 36.0588 6.99157 36.0588 7.80353V10.7439C36.0588 11.5558 35.4006 12.2141 34.5886 12.2141H31.6483C30.8363 12.2141 30.1781 11.5558 30.1781 10.7439V7.80353C30.1781 6.99157 30.8363 6.33335 31.6483 6.33335Z" fill="#1739E5"/>
<path fill-rule="evenodd" clip-rule="evenodd" d="M37.529 0.452637H11.0658C8.62991 0.452637 6.65525 2.4273 6.65525 4.86317V13.6842C6.65525 16.1201 8.62991 18.0948 11.0658 18.0948H24.2974V21.0351H16.9465C14.5106 21.0351 12.536 23.0098 12.536 25.4457V26.9159H5.18507C2.7492 26.9159 0.774536 28.8905 0.774536 31.3264V34.2667C0.774536 36.7026 2.7492 38.6773 5.18507 38.6773H22.8272C25.2631 38.6773 27.2378 36.7026 27.2378 34.2667V31.3264C27.2378 28.8905 25.2631 26.9159 22.8272 26.9159H15.4763V25.4457C15.4763 24.6337 16.1345 23.9755 16.9465 23.9755H43.4097C44.2217 23.9755 44.8799 24.6337 44.8799 25.4457V26.9159H37.529C35.0931 26.9159 33.1185 28.8905 33.1185 31.3264V34.2667C33.1185 36.7026 35.0931 38.6773 37.529 38.6773H44.8799V41.6176H11.0658C8.62991 41.6176 6.65525 43.5923 6.65525 46.0282V47.4984H5.18507C2.7492 47.4984 0.774536 49.473 0.774536 51.9089V54.8492C0.774536 57.2851 2.7492 59.2598 5.18507 59.2598H11.0658C13.5017 59.2598 15.4763 57.2851 15.4763 54.8492V51.9089C15.4763 49.473 13.5017 47.4984 11.0658 47.4984H9.59561V46.0282C9.59561 45.2162 10.2538 44.558 11.0658 44.558H27.2378V47.4984H25.7676C23.3317 47.4984 21.357 49.473 21.357 51.9089V54.8492C21.357 57.2851 23.3317 59.2598 25.7676 59.2598H31.6483C34.0842 59.2598 36.0588 57.2851 36.0588 54.8492V51.9089C36.0588 49.473 34.0842 47.4984 31.6483 47.4984H30.1781V44.558H46.3501C47.162 44.558 47.8203 45.2162 47.8203 46.0282V47.4984H46.3501C43.9142 47.4984 41.9395 49.473 41.9395 51.9089V54.8492C41.9395 57.2851 43.9142 59.2598 46.3501 59.2598H52.2308C54.6667 59.2598 56.6413 57.2851 56.6413 54.8492V51.9089C56.6413 49.473 54.6667 47.4984 52.2308 47.4984H50.7606V46.0282C50.7606 44.1078 49.5333 42.4741 47.8203 41.8686V38.6773H55.1711C57.607 38.6773 59.5817 36.7026 59.5817 34.2667V31.3264C59.5817 28.8905 57.607 26.9159 55.1711 26.9159H47.8203V25.4457C47.8203 23.0098 45.8456 21.0351 43.4097 21.0351H27.2378V18.0948H37.529C39.9649 18.0948 41.9395 16.1201 41.9395 13.6842V4.86317C41.9395 2.4273 39.9649 0.452637 37.529 0.452637ZM37.529 15.1544C38.341 15.1544 38.9992 14.4962 38.9992 13.6842V4.86317C38.9992 4.05122 38.341 3.39299 37.529 3.39299H11.0658C10.2538 3.39299 9.59561 4.05122 9.59561 4.86317V13.6842C9.59561 14.4962 10.2538 15.1544 11.0658 15.1544H37.529ZM5.18507 29.8562C4.37311 29.8562 3.71489 30.5144 3.71489 31.3264V34.2667C3.71489 35.0787 4.37311 35.7369 5.18507 35.7369H22.8272C23.6392 35.7369 24.2974 35.0787 24.2974 34.2667V31.3264C24.2974 30.5144 23.6392 29.8562 22.8272 29.8562H5.18507ZM36.0588 31.3264C36.0588 30.5144 36.717 29.8562 37.529 29.8562H55.1711C55.9831 29.8562 56.6413 30.5144 56.6413 31.3264V34.2667C56.6413 35.0787 55.9831 35.7369 55.1711 35.7369H37.529C36.717 35.7369 36.0588 35.0787 36.0588 34.2667V31.3264ZM5.18507 50.4387C4.37311 50.4387 3.71489 51.0969 3.71489 51.9089V54.8492C3.71489 55.6612 4.37311 56.3194 5.18507 56.3194H11.0658C11.8777 56.3194 12.536 55.6612 12.536 54.8492V51.9089C12.536 51.0969 11.8777 50.4387 11.0658 50.4387H5.18507ZM24.2974 51.9089C24.2974 51.0969 24.9556 50.4387 25.7676 50.4387H31.6483C32.4602 50.4387 33.1185 51.0969 33.1185 51.9089V54.8492C33.1185 55.6612 32.4602 56.3194 31.6483 56.3194H25.7676C24.9556 56.3194 24.2974 55.6612 24.2974 54.8492V51.9089ZM46.3501 50.4387C45.5381 50.4387 44.8799 51.0969 44.8799 51.9089V54.8492C44.8799 55.6612 45.5381 56.3194 46.3501 56.3194H52.2308C53.0427 56.3194 53.701 55.6612 53.701 54.8492V51.9089C53.701 51.0969 53.0427 50.4387 52.2308 50.4387H46.3501Z" fill="#1739E5"/>
</svg>
