<svg width="66" height="60" viewBox="0 0 66 60" fill="none" xmlns="http://www.w3.org/2000/svg">
<path fill-rule="evenodd" clip-rule="evenodd" d="M8.72015 0.452637H57.7261C62.2379 0.452637 65.8938 4.10848 65.8938 8.6203V51.0921C65.8938 55.6039 62.2379 59.2598 57.7261 59.2598H8.72015C4.20833 59.2598 0.55249 55.6039 0.55249 51.0921V8.6203C0.55249 4.10848 4.20833 0.452637 8.72015 0.452637ZM62.6265 18.4214C61.2608 17.3955 59.5652 16.7879 57.7259 16.7879H55.929C55.171 13.0601 51.8745 10.2537 47.9247 10.2537H18.5211C14.5712 10.2537 11.2747 13.0601 10.5168 16.7879H8.7199C6.01151 16.7879 3.81931 14.5957 3.81931 11.8873V8.62021C3.81931 5.91181 6.01151 3.71961 8.7199 3.71961H57.7259C60.4343 3.71961 62.6265 5.91181 62.6265 8.62021V18.4214ZM13.8981 16.7877C14.5711 14.883 16.3876 13.5207 18.521 13.5207H47.9246C50.058 13.5207 51.8744 14.883 52.5475 16.7877H13.8981ZM51.1917 29.8558H62.6265V24.9552C62.6265 22.2501 60.4343 20.0546 57.7259 20.0546H8.7199C6.88055 20.0546 5.18494 19.4469 3.81931 18.4211V51.0917C3.81931 53.7968 6.01151 55.9923 8.7199 55.9923H57.7259C60.4343 55.9923 62.6265 53.7968 62.6265 51.0917V46.1911H51.1917C46.6799 46.1911 43.0241 42.5353 43.0241 38.0235C43.0241 33.5116 46.6799 29.8558 51.1917 29.8558ZM62.6263 42.9242H51.1916C48.4832 42.9242 46.291 40.7288 46.291 38.0236C46.291 35.3185 48.4832 33.123 51.1916 33.123H62.6263V42.9242Z" fill="#1739E5"/>
</svg>
