<svg width="60" height="60" viewBox="0 0 60 60" fill="none" xmlns="http://www.w3.org/2000/svg">
<path fill-rule="evenodd" clip-rule="evenodd" d="M31.0764 23.8359C30.5022 24.41 29.5714 24.41 28.9972 23.8359L26.4875 21.3261H22.6859C18.6261 21.3261 15.335 18.035 15.335 13.9753V8.09454C15.335 4.03476 18.6261 0.743652 22.6859 0.743652H37.3877C41.4475 0.743652 44.7386 4.03476 44.7386 8.09454V13.9753C44.7386 18.035 41.4475 21.3261 37.3877 21.3261H33.5861L31.0764 23.8359ZM24.2446 42.6812C22.3886 41.0641 21.2156 38.683 21.2156 36.0279C21.2156 31.1562 25.1649 27.2069 30.0366 27.2069C34.9084 27.2069 38.8577 31.1562 38.8577 36.0279C38.8577 38.683 37.6847 41.0641 35.8287 42.6812L39.645 46.4976C41.0236 47.8761 41.7981 49.7458 41.7981 51.6954V53.6701C41.7981 56.9179 39.1652 59.5508 35.9173 59.5508H24.1559C20.9081 59.5508 18.2752 56.9179 18.2752 53.6701V51.6954C18.2752 49.7458 19.0497 47.8761 20.4282 46.4976L24.2446 42.6812ZM3.44784 43.283C1.73399 41.9372 0.633057 39.8463 0.633057 37.4982C0.633057 33.4384 3.92416 30.1473 7.98395 30.1473C12.0437 30.1473 15.3348 33.4384 15.3348 37.4982C15.3348 39.8463 14.2339 41.9372 12.5201 43.283L14.5588 47.3605C15.0691 48.3812 15.3348 49.5067 15.3348 50.6479V53.6702C15.3348 56.918 12.702 59.5509 9.45413 59.5509H6.51377C3.26594 59.5509 0.633057 56.918 0.633057 53.6702V50.6479C0.633057 49.5067 0.898755 48.3812 1.40911 47.3605L3.44784 43.283ZM6.07643 44.5991L4.0384 48.6752C3.73218 49.2876 3.57276 49.9629 3.57276 50.6476V53.6699C3.57276 55.2938 4.88921 56.6102 6.51312 56.6102H9.45348C11.0774 56.6102 12.3938 55.2938 12.3938 53.6699V50.6476C12.3938 49.9629 12.2344 49.2876 11.9282 48.6752L9.89017 44.5991C9.28204 44.762 8.64281 44.8488 7.9833 44.8488C7.32379 44.8488 6.68456 44.762 6.07643 44.5991ZM48.1447 48.6752L50.1828 44.5991C50.7909 44.762 51.4301 44.8488 52.0896 44.8488C52.7491 44.8488 53.3884 44.762 53.9965 44.5991L56.0345 48.6752C56.3408 49.2876 56.5002 49.9629 56.5002 50.6476V53.6699C56.5002 55.2938 55.1837 56.6102 53.5598 56.6102H50.6195C48.9955 56.6102 47.6791 55.2938 47.6791 53.6699V50.6476C47.6791 49.9629 47.8385 49.2876 48.1447 48.6752ZM47.5532 43.283C45.8394 41.9372 44.7384 39.8463 44.7384 37.4982C44.7384 33.4384 48.0295 30.1473 52.0893 30.1473C56.1491 30.1473 59.4402 33.4384 59.4402 37.4982C59.4402 39.8463 58.3393 41.9372 56.6254 43.283L58.6641 47.3605C59.1745 48.3812 59.4402 49.5067 59.4402 50.6479V53.6702C59.4402 56.918 56.8073 59.5509 53.5595 59.5509H50.6191C47.3713 59.5509 44.7384 56.918 44.7384 53.6702V50.6479C44.7384 49.5067 45.0041 48.3812 45.5145 47.3605L47.5532 43.283ZM26.6655 44.4184C26.721 44.3629 26.7711 44.3041 26.8159 44.2426C27.8136 44.6341 28.8999 44.849 30.0365 44.849C31.173 44.849 32.2594 44.6341 33.2571 44.2426C33.3018 44.3041 33.3519 44.3629 33.4074 44.4184L37.5657 48.5767C38.3929 49.4038 38.8575 50.5257 38.8575 51.6954V53.6701C38.8575 55.294 37.5411 56.6104 35.9172 56.6104H24.1558C22.5318 56.6104 21.2154 55.294 21.2154 53.6701V51.6954C21.2154 50.5257 21.6801 49.4038 22.5072 48.5767L26.6655 44.4184ZM35.918 36.028C35.918 39.2759 33.2851 41.9087 30.0373 41.9087C26.7895 41.9087 24.1566 39.2759 24.1566 36.028C24.1566 32.7802 26.7895 30.1473 30.0373 30.1473C33.2851 30.1473 35.918 32.7802 35.918 36.028ZM52.0896 41.9086C54.5255 41.9086 56.5002 39.9339 56.5002 37.498C56.5002 35.0622 54.5255 33.0875 52.0896 33.0875C49.6538 33.0875 47.6791 35.0622 47.6791 37.498C47.6791 39.9339 49.6538 41.9086 52.0896 41.9086ZM12.3938 37.498C12.3938 39.9339 10.4192 41.9086 7.9833 41.9086C5.54743 41.9086 3.57276 39.9339 3.57276 37.498C3.57276 35.0622 5.54743 33.0875 7.9833 33.0875C10.4192 33.0875 12.3938 35.0622 12.3938 37.498ZM31.9374 18.8167L30.0366 20.7175L28.1358 18.8167C27.8601 18.541 27.4862 18.3861 27.0963 18.3861H22.6857C20.2499 18.3861 18.2752 16.4115 18.2752 13.9756V8.09487C18.2752 5.659 20.2499 3.68433 22.6857 3.68433H37.3875C39.8234 3.68433 41.7981 5.659 41.7981 8.09487V13.9756C41.7981 16.4115 39.8234 18.3861 37.3875 18.3861H32.977C32.5871 18.3861 32.2131 18.541 31.9374 18.8167Z" fill="#1739E5"/>
</svg>
