<svg width="60" height="59" viewBox="0 0 60 59" fill="none" xmlns="http://www.w3.org/2000/svg">
<path fill-rule="evenodd" clip-rule="evenodd" d="M31.6703 30.0802L24.1793 37.5712L26.2913 39.6832C26.9292 40.3211 26.9292 41.3554 26.2913 41.9934L9.95598 58.3287C9.31805 58.9666 8.28375 58.9666 7.64582 58.3287L1.11169 51.7946C0.473756 51.1566 0.473756 50.1223 1.11169 49.4844L17.447 33.1491C18.0849 32.5112 19.1192 32.5112 19.7572 33.1491L21.8692 35.2611L29.3602 27.77L24.4596 22.8694H18.6021C18.1688 22.8694 17.7534 22.6973 17.447 22.391L14.1799 19.1239C13.542 18.486 13.542 17.4517 14.1799 16.8138L30.5153 0.47845C31.1532 -0.159483 32.1875 -0.159483 32.8254 0.47845L36.0925 3.74551C36.3988 4.05186 36.5709 4.46736 36.5709 4.9006V10.7581L48.6823 22.8694H54.5398C54.973 22.8694 55.3885 23.0415 55.6949 23.3479L58.9619 26.615C59.5999 27.2529 59.5999 28.2872 58.9619 28.9251L42.6266 45.2604C41.9887 45.8984 40.9544 45.8984 40.3165 45.2604L37.0494 41.9934C36.743 41.687 36.5709 41.2715 36.5709 40.8383V34.9808L31.6703 30.0802ZM17.6453 17.9692L19.2788 19.6028H25.1363C25.5695 19.6028 25.985 19.7749 26.2914 20.0812L39.3596 33.1495C39.666 33.4558 39.8381 33.8713 39.8381 34.3046V40.1621L41.4716 41.7956L55.4968 27.7704L53.8632 26.1369H48.0057C47.5725 26.1369 47.157 25.9648 46.8507 25.6584L33.7824 12.5902C33.4761 12.2838 33.304 11.8684 33.304 11.4351V5.57762L31.6704 3.94409L17.6453 17.9692ZM8.80149 54.8636L4.57752 50.6396L18.6027 36.6144L22.8266 40.8384L8.80149 54.8636Z" fill="#1739E5"/>
</svg>
