<svg width="66" height="60" viewBox="0 0 66 60" fill="none" xmlns="http://www.w3.org/2000/svg">
<path fill-rule="evenodd" clip-rule="evenodd" d="M13.4789 26.4275H6.94518V24.7942H3.67812V26.1488C1.77453 25.4762 0.410645 23.6608 0.410645 21.5269V18.889C0.410645 18.2656 0.529607 17.6479 0.761151 17.069L7.06161 1.31787C7.30968 0.697685 7.91035 0.291016 8.5783 0.291016H57.5843C58.2522 0.291016 58.8529 0.697685 59.101 1.31787L65.4014 17.069C65.633 17.6479 65.7519 18.2656 65.7519 18.889V21.5269C65.7519 23.6605 64.3884 25.4757 62.4853 26.1485V24.7942H59.2182V26.4275H52.6837C51.4285 26.4275 50.2836 25.9557 49.4166 25.1797C48.5496 25.9557 47.4047 26.4275 46.1495 26.4275H36.3483C35.0932 26.4275 33.9483 25.9557 33.0813 25.1797C32.2143 25.9557 31.0693 26.4275 29.8142 26.4275H20.013C18.7579 26.4275 17.613 25.9557 16.746 25.1797C15.879 25.9557 14.734 26.4275 13.4789 26.4275ZM59.2182 26.4275H60.8513C61.4242 26.4275 61.9742 26.3292 62.4853 26.1485V50.9307C62.4853 55.4416 58.8285 59.0984 54.3176 59.0984H11.8458C7.3349 59.0984 3.67812 55.4416 3.67812 50.9307V26.1488C4.18894 26.3293 4.73862 26.4275 5.31124 26.4275H6.94518V50.9307C6.94518 53.6372 9.13925 55.8313 11.8458 55.8313H54.3176C57.0241 55.8313 59.2182 53.6372 59.2182 50.9307V26.4275ZM13.4783 55.8312H16.7454V37.8624C16.7454 36.9602 17.4768 36.2288 18.3789 36.2288H28.1801C29.0823 36.2288 29.8137 36.9602 29.8137 37.8624V55.8312H33.0807V37.8624C33.0807 35.1558 30.8866 32.9618 28.1801 32.9618H18.3789C15.6724 32.9618 13.4783 35.1558 13.4783 37.8624V55.8312ZM42.8823 37.8625V44.3966C42.8823 45.2988 43.6137 46.0301 44.5159 46.0301H47.7829C48.6851 46.0301 49.4165 45.2988 49.4165 44.3966V37.8625C49.4165 36.9603 48.6851 36.229 47.7829 36.229H44.5159C43.6137 36.229 42.8823 36.9603 42.8823 37.8625ZM44.5165 32.9618C41.81 32.9618 39.6159 35.1558 39.6159 37.8624V44.3965C39.6159 47.103 41.81 49.2971 44.5165 49.2971H47.7836C50.4901 49.2971 52.6841 47.103 52.6841 44.3965V37.8624C52.6841 35.1558 50.4901 32.9618 47.7836 32.9618H44.5165ZM3.79495 18.2826L9.68467 3.55836H56.4787L62.3684 18.2826C62.4456 18.4756 62.4853 18.6815 62.4853 18.8893V21.5272C62.4853 22.4294 61.7539 23.1607 60.8517 23.1607H52.6841C51.7819 23.1607 51.0505 22.4294 51.0505 21.5272V18.2601C51.0505 17.358 50.3192 16.6266 49.417 16.6266C48.5148 16.6266 47.7835 17.358 47.7835 18.2601V21.5272C47.7835 22.4294 47.0521 23.1607 46.1499 23.1607H36.3488C35.4466 23.1607 34.7152 22.4294 34.7152 21.5272V18.2601C34.7152 17.358 33.9839 16.6266 33.0817 16.6266C32.1795 16.6266 31.4482 17.358 31.4482 18.2601V21.5272C31.4482 22.4294 30.7168 23.1607 29.8146 23.1607H20.0134C19.1113 23.1607 18.3799 22.4294 18.3799 21.5272V18.2601C18.3799 17.358 17.6485 16.6266 16.7464 16.6266C15.8442 16.6266 15.1128 17.358 15.1128 18.2601V21.5272C15.1128 22.4294 14.3815 23.1607 13.4793 23.1607H5.31165C4.40948 23.1607 3.67812 22.4294 3.67812 21.5272V18.8893C3.67812 18.6815 3.71777 18.4756 3.79495 18.2826Z" fill="#1739E5"/>
</svg>
